<?xml version="1.0" standalone="no"?>
<!DOCTYPE svg PUBLIC "-//W3C//DTD SVG 20010904//EN"
 "http://www.w3.org/TR/2001/REC-SVG-20010904/DTD/svg10.dtd">
<svg version="1.0" xmlns="http://www.w3.org/2000/svg"
 width="930.000000pt" height="930.000000pt" viewBox="0 0 930.000000 930.000000"
 preserveAspectRatio="xMidYMid meet">
<metadata>
Created by potrace 1.14, written by Peter Selinger 2001-2017
</metadata>
<g transform="translate(0.000000,930.000000) scale(0.100000,-0.100000)"
fill="#000000" stroke="none">
<path d="M6745 9163 c-71 -7 -163 -43 -212 -84 -26 -21 -51 -39 -54 -39 -4 0
-14 -16 -24 -36 -16 -34 -16 -41 -2 -100 9 -35 27 -80 40 -99 51 -75 201 -174
332 -219 28 -10 57 -21 65 -25 8 -5 40 -16 70 -25 104 -31 99 -14 96 -317 -2
-145 -1 -297 3 -336 4 -40 4 -73 0 -73 -4 0 -23 21 -41 48 -72 99 -265 312
-381 419 -133 122 -459 330 -642 410 -211 92 -481 174 -715 219 -41 8 -95 21
-120 29 -103 32 -299 48 -645 51 -337 3 -488 -4 -680 -31 -55 -7 -122 -17
-150 -20 -27 -4 -90 -17 -140 -30 -49 -12 -108 -25 -131 -29 -22 -3 -97 -24
-166 -46 -69 -22 -132 -40 -140 -40 -29 0 -364 -139 -565 -235 -60 -29 -73
-32 -83 -20 -44 53 -218 111 -375 125 -236 21 -457 -44 -700 -205 -142 -95
-301 -306 -345 -460 -44 -150 -83 -333 -81 -375 5 -129 22 -339 30 -366 9 -32
6 -40 -47 -117 -123 -177 -227 -347 -306 -497 -289 -553 -425 -1091 -426
-1675 0 -286 52 -734 106 -911 97 -321 261 -696 389 -888 51 -78 52 -81 32
-90 -112 -47 -264 -128 -275 -147 -8 -12 -16 -49 -19 -82 -4 -55 -1 -67 33
-133 43 -85 114 -158 204 -214 l62 -38 -43 -27 c-133 -82 -223 -160 -325 -280
-177 -211 -218 -290 -254 -500 -22 -133 -19 -204 12 -281 87 -216 231 -306
588 -371 19 -3 61 -23 95 -44 33 -21 92 -50 130 -65 64 -25 82 -28 205 -28
118 0 147 3 233 27 54 15 109 33 122 39 28 13 59 71 51 96 -4 10 -10 51 -16
92 -22 180 42 458 153 662 l31 57 30 -22 c45 -32 163 -31 225 1 24 13 44 22
46 20 1 -2 5 -19 8 -40 4 -27 1 -40 -13 -53 -27 -24 -136 -248 -165 -340 -63
-195 -76 -263 -81 -425 -2 -85 -7 -163 -10 -173 -3 -10 0 -32 6 -47 14 -35
101 -72 159 -69 22 2 72 -12 131 -36 109 -44 298 -77 408 -71 58 3 70 1 94
-19 34 -28 253 -140 317 -162 25 -8 62 -28 82 -44 41 -32 195 -109 219 -109 9
0 20 -4 25 -9 17 -15 186 -77 265 -97 57 -15 109 -19 220 -18 135 1 151 3 239
33 51 17 102 38 113 45 16 12 28 12 76 0 239 -57 607 -35 851 50 115 40 272
123 306 161 l30 34 60 -40 c76 -52 179 -101 275 -130 65 -20 97 -23 245 -24
245 0 256 2 373 57 56 26 102 52 102 58 0 5 15 20 34 33 40 27 133 136 184
217 19 30 49 69 66 86 17 16 44 57 60 90 15 32 46 87 68 121 22 34 54 101 72
147 l32 85 54 -26 c46 -22 69 -27 140 -27 72 0 94 4 146 28 53 24 66 26 98 17
63 -17 159 5 271 62 100 50 184 124 219 192 29 58 30 63 22 150 -22 257 -47
391 -98 514 -51 122 -77 162 -163 247 l-81 81 62 22 c73 26 219 125 262 177
56 67 65 179 19 222 -12 11 -49 27 -82 37 -102 28 -395 187 -395 213 0 5 14
27 31 48 17 22 46 66 66 99 19 33 47 80 62 105 38 62 96 209 120 307 12 44 29
146 40 225 15 117 30 176 79 324 66 199 95 301 88 312 -2 4 2 45 10 90 24 141
32 261 27 437 -5 153 -4 327 1 332 1 1 50 14 110 29 96 25 114 33 157 72 112
101 204 338 230 592 22 231 -9 570 -53 570 -4 0 -16 17 -27 39 -30 57 -127 91
-189 66 l-34 -15 9 113 c24 329 -7 641 -102 1017 -53 210 -148 473 -204 568
-16 26 -51 87 -80 135 -98 169 -253 350 -390 459 -111 88 -264 155 -402 177
-64 11 -77 11 -154 4z m226 -163 c141 -45 286 -140 431 -282 106 -102 235
-266 244 -307 3 -14 14 -48 24 -76 78 -207 124 -480 137 -812 4 -128 3 -173
-5 -173 -7 0 -12 -8 -12 -17 0 -10 -10 -71 -22 -135 -19 -100 -24 -115 -36
-105 -22 18 -101 36 -159 37 -31 0 -53 5 -53 11 0 22 -72 156 -101 187 -30 32
-62 41 -74 22 -12 -19 -33 -10 -52 23 -29 50 -93 231 -103 290 -16 101 -30
403 -34 744 l-4 342 -46 70 c-56 84 -117 140 -200 182 -50 25 -55 30 -26 24
19 -4 60 -16 91 -25z m-2083 -277 c-10 -2 -26 -2 -35 0 -10 3 -2 5 17 5 19 0
27 -2 18 -5z m-548 -13 c8 -5 12 -12 8 -15 -10 -10 -49 5 -43 16 8 11 16 11
35 -1z m608 -12 c-7 -19 -38 -22 -38 -4 0 10 9 16 21 16 12 0 19 -5 17 -12z
m227 -36 c-3 -3 -11 0 -18 7 -9 10 -8 11 6 5 10 -3 15 -9 12 -12z m-1025 -12
c0 -5 -5 -10 -11 -10 -5 0 -7 5 -4 10 3 6 8 10 11 10 2 0 4 -4 4 -10z m-46 -8
c3 -5 -1 -9 -9 -9 -8 0 -12 4 -9 9 3 4 7 8 9 8 2 0 6 -4 9 -8z m-133 -55 c-10
-9 -11 -8 -5 6 3 10 9 15 12 12 3 -3 0 -11 -7 -18z m1433 -12 c11 -8 18 -17
15 -19 -2 -3 -15 4 -29 14 -14 11 -20 20 -15 19 6 0 19 -6 29 -14z m-3225 -36
c105 -17 166 -43 220 -94 28 -26 59 -54 71 -62 11 -8 27 -28 36 -45 15 -29 15
-31 -2 -23 -124 50 -159 56 -269 52 -173 -6 -278 -53 -409 -182 -83 -82 -132
-171 -168 -305 -32 -121 -32 -346 0 -469 30 -115 84 -211 164 -292 67 -69 194
-158 278 -196 25 -11 61 -27 80 -36 41 -18 177 -58 265 -78 39 -9 126 -14 245
-14 198 0 297 14 430 60 88 31 120 37 120 25 0 -5 -4 -10 -10 -10 -37 0 33
-120 133 -227 163 -174 401 -302 772 -413 369 -110 696 -160 1065 -160 134 0
361 23 440 45 30 8 59 15 63 15 16 0 89 -176 121 -293 18 -67 39 -167 46 -222
7 -55 16 -105 21 -111 21 -27 4 -476 -26 -679 -17 -114 -51 -277 -67 -317 -12
-33 -68 -53 -178 -64 -74 -7 -92 -17 -63 -33 19 -9 132 -7 184 4 38 9 38 5 -2
-90 -4 -11 -27 -69 -51 -130 -42 -109 -132 -277 -174 -325 -12 -14 -41 -47
-64 -75 -70 -83 -74 -88 -148 -158 -40 -37 -77 -67 -82 -67 -13 0 -13 -4 10
57 11 29 29 90 40 135 19 75 35 123 61 183 5 11 26 74 48 140 83 256 127 591
129 985 1 181 -6 261 -23 267 -6 2 -10 -59 -11 -170 -3 -535 -94 -977 -295
-1427 -36 -80 -122 -235 -145 -261 -8 -8 -14 -20 -14 -25 0 -5 -14 -24 -30
-43 -16 -18 -42 -49 -57 -70 -15 -20 -50 -58 -77 -85 l-49 -49 -44 49 c-25 27
-50 56 -58 64 -48 55 -204 320 -296 504 -91 184 -109 227 -109 266 0 25 -4 50
-9 55 -22 24 -71 367 -71 503 0 34 -4 62 -10 62 -13 0 -13 -295 0 -397 16
-123 50 -296 86 -447 19 -77 32 -142 29 -144 -2 -2 3 -11 11 -19 8 -9 18 -28
21 -44 3 -16 10 -29 15 -29 6 0 8 -7 4 -15 -3 -8 -1 -15 3 -15 15 0 22 -32 11
-45 -8 -10 -6 -17 8 -27 10 -7 24 -24 31 -37 12 -22 11 -22 -48 9 -145 78
-395 321 -484 471 -40 67 -78 143 -131 262 -10 21 -15 41 -12 44 3 3 19 0 37
-6 37 -13 199 -15 199 -3 0 4 -56 18 -125 31 -68 13 -129 29 -134 35 -31 37
-104 339 -126 521 -27 229 -10 583 41 815 20 93 66 215 110 296 38 68 40 74
22 74 -30 -1 -158 -278 -174 -376 -5 -36 -11 -43 -62 -69 -188 -97 -403 -287
-517 -456 -27 -41 -52 -76 -55 -79 -36 -36 -190 -312 -248 -445 -29 -65 -22
-25 20 115 115 391 336 836 581 1170 68 93 287 302 348 333 30 15 62 27 71 27
28 0 31 19 4 26 -37 9 -83 -10 -156 -65 -159 -121 -311 -297 -456 -531 -57
-92 -201 -369 -261 -500 -75 -165 -160 -418 -203 -605 -18 -77 -41 -165 -51
-196 -10 -31 -26 -110 -34 -175 -9 -66 -21 -148 -26 -184 -11 -81 -10 -436 2
-550 8 -68 25 -170 43 -245 24 -102 83 -234 141 -316 18 -25 48 -74 66 -109
19 -35 57 -88 86 -117 45 -46 51 -57 43 -77 -6 -18 -19 -25 -52 -29 -24 -4
-62 -9 -86 -12 -23 -3 -75 -1 -115 4 -221 31 -444 207 -550 433 -12 26 -25 48
-29 48 -31 1 33 -151 107 -256 52 -72 163 -177 220 -207 58 -31 139 -64 176
-72 32 -7 129 -98 129 -121 0 -32 -236 -28 -340 6 -57 19 -144 62 -153 76 -4
7 -13 11 -21 8 -7 -3 -45 14 -85 38 -134 79 -186 115 -267 185 -212 182 -301
334 -354 606 -19 97 -21 133 -17 335 5 267 13 304 112 534 34 82 59 148 54
148 -5 0 -12 -6 -15 -14 -3 -8 -11 -13 -18 -10 -13 5 -85 -129 -125 -231 -25
-66 -66 -255 -81 -375 -16 -123 -6 -309 21 -393 19 -60 19 -94 -1 -82 -6 4 -8
10 -5 15 3 4 -3 6 -12 4 -11 -3 -24 4 -33 17 -8 12 -39 50 -69 83 -74 84 -159
216 -183 283 -11 31 -29 118 -40 192 -26 173 -21 400 12 561 38 187 140 472
235 659 19 38 35 73 35 79 0 6 19 46 41 89 71 133 172 318 178 323 15 13 71
99 71 109 0 6 4 11 9 11 5 0 13 9 16 20 3 11 12 26 19 32 6 7 25 31 41 53 17
22 40 51 51 65 175 206 244 281 393 430 250 249 247 246 313 254 122 15 293
66 365 109 39 22 34 43 -5 23 -42 -22 -102 -35 -245 -57 -158 -23 -582 -44
-612 -30 -11 5 -51 17 -90 26 -221 52 -547 228 -651 352 -27 31 -59 66 -71 78
-35 32 -90 143 -114 230 -53 187 -15 580 73 760 40 81 121 192 181 247 147
137 195 173 258 197 35 13 78 32 94 42 26 15 134 40 230 52 63 8 182 6 244 -4z
m1601 5 c0 -8 -19 -13 -24 -6 -3 5 1 9 9 9 8 0 15 -2 15 -3z m29 -7 c8 -10 7
-14 -4 -14 -8 0 -15 6 -15 14 0 7 2 13 4 13 2 0 9 -6 15 -13z m1701 -1 c0 -3
-4 -8 -10 -11 -5 -3 -10 -1 -10 4 0 6 5 11 10 11 6 0 10 -2 10 -4z m-1800 -20
c0 -3 -4 -8 -10 -11 -5 -3 -10 -1 -10 4 0 6 5 11 10 11 6 0 10 -2 10 -4z m70
-10 c0 -3 -4 -8 -10 -11 -5 -3 -10 -1 -10 4 0 6 5 11 10 11 6 0 10 -2 10 -4z
m924 -38 c-3 -4 -11 -8 -17 -7 -9 0 -9 2 0 5 7 3 9 13 6 22 -4 14 -3 14 5 2 6
-8 8 -18 6 -22z m-1060 -4 c3 -8 2 -12 -4 -9 -6 3 -10 10 -10 16 0 14 7 11 14
-7z m1291 7 c-3 -2 -16 -6 -28 -8 -15 -2 -18 0 -9 5 14 9 45 12 37 3z m745
-42 c0 -4 -6 -11 -12 -15 -7 -4 -10 -4 -6 0 4 5 2 20 -3 35 -9 24 -8 25 6 7 8
-11 15 -23 15 -27z m29 8 c8 -10 7 -14 -2 -14 -8 0 -14 6 -14 14 0 7 1 13 2
13 2 0 8 -6 14 -13z m-2079 -21 c0 -11 -19 -15 -25 -6 -3 5 1 10 9 10 9 0 16
-2 16 -4z m2125 -16 c3 -5 1 -10 -4 -10 -6 0 -11 5 -11 10 0 6 2 10 4 10 3 0
8 -4 11 -10z m-2179 -45 c1 -8 -2 -17 -7 -21 -5 -3 -8 6 -7 20 2 26 10 26 14
1z m2198 -1 c4 -10 14 -14 25 -11 14 3 18 1 14 -9 -3 -10 -10 -11 -23 -4 -9 5
-21 6 -26 2 -5 -4 -6 -3 -2 2 4 5 3 15 -3 23 -7 8 -8 13 -1 13 5 0 13 -7 16
-16z m-2659 -24 c3 -5 1 -10 -4 -10 -6 0 -11 5 -11 10 0 6 2 10 4 10 3 0 8 -4
11 -10z m390 0 c-3 -5 -11 -10 -16 -10 -6 0 -7 5 -4 10 3 6 11 10 16 10 6 0 7
-4 4 -10z m-605 -10 c-8 -5 -22 -10 -30 -10 -13 0 -13 1 0 10 8 5 22 10 30 10
13 0 13 -1 0 -10z m2950 -5 c9 5 11 4 6 -3 -11 -18 -36 -14 -36 6 0 13 2 14 9
3 5 -8 14 -10 21 -6z m51 -42 c13 -16 12 -17 -3 -4 -14 11 -18 11 -18 1 0 -8
-3 -11 -6 -7 -5 5 3 27 10 27 2 0 10 -8 17 -17z m-3206 -2 c3 -5 2 -12 -3 -15
-5 -3 -9 1 -9 9 0 17 3 19 12 6z m2255 -30 c0 -6 -4 -13 -10 -16 -5 -3 -10 1
-10 9 0 9 5 16 10 16 6 0 10 -4 10 -9z m-2373 -18 c-4 -3 -1 -13 6 -22 11 -14
10 -14 -5 -2 -21 15 -23 31 -6 31 6 0 8 -3 5 -7z m1783 -28 c0 -8 -7 -15 -15
-15 -13 0 -14 3 -3 15 16 18 18 18 18 0z m757 -11 c-3 -3 -12 -4 -19 -1 -8 3
-5 6 6 6 11 1 17 -2 13 -5z m1000 -41 c-15 -4 -16 -7 -5 -21 12 -15 11 -16 -4
-3 -20 15 -15 32 10 30 15 -1 15 -2 -1 -6z m1699 -102 c118 -345 165 -665 159
-1081 -6 -356 -20 -496 -40 -397 -4 17 -18 52 -32 76 -23 39 -24 48 -14 80 14
48 -6 76 -75 104 l-52 21 6 41 c2 22 8 45 12 50 5 6 15 35 23 65 56 200 47
753 -18 1067 -8 40 -15 76 -15 80 1 11 26 -48 46 -106z m-1812 83 c3 -8 2 -12
-4 -9 -6 3 -10 10 -10 16 0 14 7 11 14 -7z m-1694 -14 c0 -5 -2 -10 -4 -10 -3
0 -8 5 -11 10 -3 6 -1 10 4 10 6 0 11 -4 11 -10z m-2012 -27 c-9 -11 -14 -30
-11 -46 3 -26 2 -28 -18 -22 -14 5 -19 4 -15 -4 4 -6 2 -11 -3 -11 -6 0 -11 7
-11 15 0 8 7 15 15 15 8 0 15 8 15 17 0 9 7 25 17 35 21 23 31 24 11 1z m3979
-5 c-3 -8 -6 -5 -6 6 -1 11 2 17 5 13 3 -3 4 -12 1 -19z m-1320 -14 c-3 -3
-12 -4 -19 -1 -8 3 -5 6 6 6 11 1 17 -2 13 -5z m-610 -10 c-3 -3 -12 -4 -19
-1 -8 3 -5 6 6 6 11 1 17 -2 13 -5z m2158 -62 c-3 -3 -11 0 -18 7 -9 10 -8 11
6 5 10 -3 15 -9 12 -12z m75 -41 c0 -5 -7 -11 -14 -14 -10 -4 -13 -1 -9 9 6
15 23 19 23 5z m-2272 -21 c-7 -10 -14 -17 -17 -15 -4 4 18 35 25 35 2 0 -1
-9 -8 -20z m322 6 c0 -2 -8 -10 -17 -17 -16 -13 -17 -12 -4 4 13 16 21 21 21
13z m148 -33 c-10 -2 -18 -9 -18 -15 0 -6 -3 -9 -6 -5 -10 10 6 27 24 26 15
-1 15 -2 0 -6z m242 -13 c0 -5 -4 -10 -10 -10 -5 0 -10 5 -10 10 0 6 5 10 10
10 6 0 10 -4 10 -10z m1637 -5 c0 -8 -4 -15 -9 -15 -5 0 -6 -6 -2 -12 5 -9 2
-9 -9 1 -18 14 -23 26 -8 17 5 -3 11 1 15 9 7 19 13 19 13 0z m-4517 -9 c0 -3
-4 -8 -10 -11 -5 -3 -10 -1 -10 4 0 6 5 11 10 11 6 0 10 -2 10 -4z m-70 -32
c0 -8 -5 -12 -10 -9 -6 4 -8 11 -5 16 9 14 15 11 15 -7z m2305 -33 c-6 -5 -25
10 -25 20 0 5 6 4 14 -3 8 -7 12 -15 11 -17z m2345 25 c0 -11 -19 -15 -25 -6
-3 5 1 10 9 10 9 0 16 -2 16 -4z m-1500 -20 c0 -3 -4 -8 -10 -11 -5 -3 -10 -1
-10 4 0 6 5 11 10 11 6 0 10 -2 10 -4z m1573 -73 c-7 -2 -19 -2 -25 0 -7 3 -2
5 12 5 14 0 19 -2 13 -5z m6 -57 c-3 -3 -11 5 -18 17 -13 21 -12 21 5 5 10
-10 16 -20 13 -22z m95 -77 c-3 -6 0 -15 7 -20 9 -6 10 -9 2 -9 -15 0 -26 17
-18 30 3 6 8 10 11 10 3 0 2 -5 -2 -11z m-2077 -35 c-3 -3 -12 -4 -19 -1 -8 3
-5 6 6 6 11 1 17 -2 13 -5z m-2872 -13 c3 -5 2 -12 -3 -15 -5 -3 -9 1 -9 9 0
17 3 19 12 6z m2935 -31 c0 10 3 11 8 4 4 -6 14 -14 22 -17 8 -3 2 -5 -14 -3
-17 1 -32 9 -34 17 -3 11 -1 11 7 -1 10 -13 11 -13 11 0z m2055 -11 c11 -17
-1 -21 -15 -4 -8 9 -8 15 -2 15 6 0 14 -5 17 -11z m36 -52 c-10 -9 -11 -8 -5
6 3 10 9 15 12 12 3 -3 0 -11 -7 -18z m-5113 -95 c2 -7 -3 -12 -12 -12 -9 0
-16 7 -16 16 0 17 22 14 28 -4z m5145 3 c-3 -9 -8 -14 -10 -11 -3 3 -2 9 2 15
9 16 15 13 8 -4z m-5156 -67 c-3 -8 -6 -5 -6 6 -1 11 2 17 5 13 3 -3 4 -12 1
-19z m5399 -80 c11 -16 21 -28 24 -27 3 0 24 25 48 55 24 30 49 54 56 54 14 0
136 -191 136 -214 0 -9 22 -13 83 -14 108 -3 116 -6 115 -45 0 -18 7 -70 15
-115 9 -46 14 -89 11 -96 -3 -8 17 -21 55 -35 33 -12 63 -26 66 -32 4 -5 -7
-25 -24 -44 -17 -20 -33 -48 -37 -63 -3 -15 -7 -31 -8 -36 -1 -6 -17 17 -36
50 -35 61 -146 178 -179 189 -11 3 -24 20 -30 37 -6 17 -35 54 -63 81 -91 87
-213 126 -292 93 -21 -9 -42 -16 -46 -16 -15 0 -50 86 -50 121 0 20 7 59 15
87 l16 52 53 -28 c30 -15 62 -39 72 -54z m-5406 17 c-7 -9 -15 -13 -19 -10 -3
3 1 10 9 15 21 14 24 12 10 -5z m5223 0 c-3 -9 -8 -14 -10 -11 -3 3 -2 9 2 15
9 16 15 13 8 -4z m5 -377 c7 -9 0 -37 -22 -93 -28 -69 -36 -80 -59 -83 -18 -2
-29 3 -37 18 -9 18 -6 31 21 78 50 90 73 109 97 80z m-6038 -38 c0 -5 -8 -10
-17 -10 -15 0 -16 2 -3 10 19 12 20 12 20 0z m-6 -59 c3 -5 -1 -11 -9 -14 -9
-4 -12 -1 -8 9 6 16 10 17 17 5z m6116 -4 c0 -7 -7 -22 -15 -33 -8 -10 -15
-27 -15 -36 0 -31 -23 -68 -41 -68 -35 0 -27 39 25 117 21 33 46 44 46 20z
m397 -29 c25 -24 48 -38 50 -33 13 36 22 39 44 15 87 -98 175 -295 164 -367
-11 -78 -60 -218 -75 -218 -8 0 -27 21 -41 48 -32 60 -63 103 -167 230 -106
129 -132 179 -132 251 0 46 4 59 29 85 41 43 71 41 128 -11z m-1122 -62 c100
-77 275 -250 364 -361 61 -75 168 -218 188 -250 7 -11 44 -71 84 -134 40 -63
94 -162 121 -220 27 -58 58 -122 68 -142 43 -79 147 -373 224 -629 64 -212
106 -539 108 -839 2 -254 -30 -428 -109 -601 -19 -41 -41 -94 -48 -117 -18
-60 -58 -108 -216 -265 -125 -124 -148 -141 -231 -182 -108 -53 -214 -82 -222
-60 -3 9 0 11 12 7 9 -3 14 -3 10 2 -4 4 23 40 60 79 37 39 83 92 101 119 19
26 38 47 43 47 4 0 8 6 8 14 0 8 4 16 9 18 14 5 96 159 125 235 15 38 31 94
36 124 5 30 18 92 29 139 33 138 53 324 54 495 1 162 -17 325 -35 325 -6 0 -8
-12 -4 -27 3 -16 9 -116 12 -223 7 -217 -4 -335 -51 -545 -35 -155 -141 -435
-165 -435 -4 0 -20 -25 -35 -56 -59 -121 -261 -324 -322 -324 -10 0 -24 -9
-30 -19 -7 -11 -27 -22 -45 -26 -18 -4 -36 -12 -39 -17 -3 -5 -44 -12 -90 -15
l-84 -6 22 24 c23 25 143 269 170 344 8 22 20 67 27 100 8 33 25 110 39 170
61 258 70 336 68 553 -1 112 -6 226 -11 254 -6 28 -10 85 -10 127 0 256 -83
722 -181 1016 -55 164 -123 322 -188 435 -30 52 -59 100 -65 106 -6 6 -18 22
-26 34 -8 13 -39 48 -68 79 l-54 56 28 -50 c15 -27 56 -90 90 -140 76 -111
128 -213 193 -378 156 -392 262 -987 244 -1360 -8 -154 -20 -130 -38 73 -5 55
-48 238 -65 275 -5 11 -16 45 -26 75 -9 30 -20 59 -25 64 -5 6 -9 17 -9 25 0
24 -125 271 -176 346 -77 115 -185 256 -246 322 -32 34 -58 69 -58 76 0 8 -11
30 -24 50 -18 26 -27 60 -36 129 -21 178 -60 320 -128 469 -17 37 -35 70 -42
74 -7 4 8 16 37 30 27 12 79 41 115 64 36 22 68 41 72 41 12 0 118 76 176 125
97 84 180 206 195 288 8 40 8 40 70 -7z m-5491 -1 c-4 -8 -10 -12 -15 -9 -14
8 -10 24 6 24 9 0 12 -6 9 -15z m6956 -92 c27 -70 49 -189 50 -262 0 -41 3
-52 14 -48 9 4 25 -9 41 -33 l27 -39 -48 -58 c-26 -32 -51 -61 -54 -66 -4 -4
-8 18 -9 50 -5 119 -50 322 -92 419 l-21 47 28 23 c16 13 32 23 36 24 4 0 16
-26 28 -57z m320 -3 c5 0 23 -13 40 -30 31 -30 35 -51 31 -150 -3 -54 -59
-225 -101 -310 -42 -83 -113 -176 -160 -210 l-30 -21 6 48 c3 26 16 75 29 108
12 33 29 84 36 113 12 50 12 55 -11 98 -14 25 -37 56 -52 69 -32 27 -37 72
-16 152 9 36 20 52 55 77 49 35 131 68 151 61 8 -3 18 -5 22 -5z m-7345 -69
c3 -5 1 -12 -5 -16 -5 -3 -10 1 -10 9 0 18 6 21 15 7z m-62 -56 c-3 -9 -8 -14
-10 -11 -3 3 -2 9 2 15 9 16 15 13 8 -4z m6529 -44 c67 -25 358 -310 358 -350
0 -10 -19 -47 -42 -82 -45 -69 -102 -166 -126 -214 -40 -80 -129 -185 -156
-185 -3 0 -18 26 -34 58 -46 92 -113 216 -122 226 -5 5 0 26 11 47 25 51 24
64 -9 94 -69 61 -91 164 -59 270 36 121 97 167 179 136z m-6598 -159 c2 -4 -4
-9 -15 -9 -11 -1 -17 2 -14 8 7 11 22 12 29 1z m7124 -307 l1 -90 -23 55 c-13
30 -33 71 -44 90 -30 48 -28 63 15 152 l38 77 6 -97 c4 -53 7 -137 7 -187z
m-95 -11 c33 -88 67 -228 67 -274 -1 -25 -7 -56 -15 -70 -8 -14 -14 -37 -15
-52 0 -38 -48 -162 -71 -187 -22 -24 -36 -20 -48 12 -7 19 -12 14 -40 -41 -34
-68 -49 -79 -79 -63 -37 20 -55 77 -50 160 4 64 14 99 66 226 101 249 145 346
156 342 6 -2 19 -26 29 -53z m-7086 -176 c-2 -13 -4 -3 -4 22 0 25 2 35 4 23
2 -13 2 -33 0 -45z m-40 -10 c-2 -13 -4 -5 -4 17 -1 22 1 32 4 23 2 -10 2 -28
0 -40z m13 -69 c0 -6 -4 -7 -10 -4 -5 3 -10 11 -10 16 0 6 5 7 10 4 6 -3 10
-11 10 -16z m2926 -251 c-13 -102 -16 -162 -17 -314 0 -280 33 -521 97 -712 8
-23 14 -47 14 -51 0 -25 -420 136 -455 174 -5 6 -34 25 -62 43 -39 23 -53 28
-53 17 0 -29 140 -134 255 -192 76 -39 225 -89 288 -99 40 -5 50 -11 58 -33
40 -105 131 -276 214 -401 45 -66 181 -211 275 -290 29 -25 62 -53 74 -63 11
-11 34 -26 51 -34 16 -9 35 -21 42 -28 15 -15 88 -29 103 -20 16 10 2 91 -30
180 -31 87 -47 144 -36 134 3 -3 26 -44 49 -90 106 -206 196 -324 328 -432 54
-43 70 -41 135 15 38 33 136 157 164 206 21 37 132 212 135 212 6 0 -18 -86
-27 -96 -11 -15 17 -44 42 -44 49 0 175 103 245 200 53 73 78 98 109 106 15 3
29 10 32 15 3 5 9 7 14 4 11 -7 130 45 130 57 0 5 -8 7 -17 5 -10 -3 -40 -8
-68 -12 -27 -4 -55 -11 -62 -17 -31 -26 -28 2 6 54 59 90 163 304 190 393 7
22 19 54 27 72 8 17 14 36 14 42 0 11 66 56 81 56 9 0 98 60 128 85 38 33 16
35 -41 4 -99 -53 -129 -67 -133 -62 -2 2 2 28 10 58 46 171 76 426 74 633 0
82 1 150 3 152 7 7 151 -184 183 -241 45 -81 117 -198 125 -204 10 -7 73 -133
120 -240 41 -92 104 -274 139 -401 22 -78 23 -82 41 -219 6 -47 15 -115 20
-153 16 -110 12 -301 -9 -428 -28 -167 -65 -273 -170 -484 -31 -60 -54 -114
-53 -118 1 -5 -1 -6 -6 -3 -5 3 -19 -8 -31 -25 -28 -38 -22 -74 14 -83 14 -4
23 -11 20 -16 -9 -14 97 -22 148 -11 27 6 52 9 56 6 22 -13 42 -137 42 -261 0
-152 -51 -264 -178 -384 -60 -57 -221 -166 -231 -156 -1 2 -12 29 -23 61 -57
163 -214 294 -360 301 -79 4 -228 -34 -414 -106 -144 -56 -203 -81 -412 -180
-43 -20 -63 -26 -63 -17 0 7 4 17 9 22 24 27 83 289 79 350 -2 37 -30 66 -43
45 -22 -35 -447 29 -606 91 -22 9 -30 7 -51 -13 -94 -90 -203 -304 -243 -473
-25 -111 -14 -271 21 -305 15 -14 16 -12 8 15 -5 17 -9 86 -9 155 0 107 4 135
24 190 36 99 58 147 118 248 46 79 61 97 95 112 40 18 41 18 95 -7 86 -39 188
-63 303 -70 58 -3 110 -10 117 -15 32 -25 83 -169 83 -234 0 -50 -32 -132 -55
-142 -12 -6 -47 -31 -78 -56 -31 -25 -61 -46 -66 -46 -16 0 -63 -86 -87 -159
-12 -36 -27 -67 -33 -69 -15 -5 -340 26 -451 44 -300 47 -521 99 -686 162
-212 82 -276 114 -310 158 -48 61 -116 165 -118 180 -1 7 -16 35 -33 61 -72
113 -110 182 -130 236 l-21 57 27 7 c44 10 119 51 135 74 18 26 7 47 -35 72
-16 9 -29 22 -29 30 0 8 -9 22 -20 32 -40 36 -129 181 -163 265 -51 125 -62
188 -18 103 26 -52 146 -177 160 -169 6 4 11 13 9 19 -13 71 64 220 162 310
54 51 174 137 189 137 4 0 -10 -35 -31 -77 -80 -166 -101 -405 -48 -553 31
-88 75 -164 113 -196 90 -76 238 -112 370 -89 97 17 142 42 208 112 76 84 104
172 102 333 -1 139 -22 241 -68 335 -18 38 -32 72 -29 74 2 3 19 -10 37 -27
32 -31 87 -45 87 -22 0 6 6 10 14 10 19 0 28 43 20 88 -19 101 -141 217 -274
261 -26 9 -44 26 -72 71 -35 55 -40 60 -74 60 -25 0 -48 -9 -74 -30 -31 -25
-47 -30 -91 -30 -65 0 -165 -21 -262 -54 -69 -23 -176 -72 -187 -85 -3 -4 -18
-15 -35 -26 -44 -28 -143 -124 -175 -170 -42 -62 -90 -156 -91 -179 l0 -21 -9
21 c-15 39 -60 279 -74 399 -7 66 -14 201 -15 300 -1 156 1 189 19 250 12 39
26 93 31 120 6 28 14 55 18 60 4 6 18 37 31 70 13 33 43 102 67 154 23 51 43
96 43 99 0 10 94 167 151 252 93 138 219 288 330 394 146 139 171 156 231 156
l49 0 -5 -42z m-3006 -14 c0 -8 -5 -12 -10 -9 -6 4 -8 11 -5 16 9 14 15 11 15
-7z m-80 -330 c0 -14 -4 -23 -9 -20 -5 3 -7 15 -4 26 7 28 13 25 13 -6z m-13
-86 c-3 -8 -6 -5 -6 6 -1 11 2 17 5 13 3 -3 4 -12 1 -19z m14 -431 c-10 -9
-11 -8 -5 6 3 10 9 15 12 12 3 -3 0 -11 -7 -18z m52 -121 c4 -10 1 -13 -9 -9
-15 6 -19 23 -5 23 5 0 11 -7 14 -14z m43 -125 c-4 -5 -1 -11 6 -13 8 -3 6 -7
-5 -11 -17 -6 -24 12 -10 26 9 10 15 8 9 -2z m58 -140 c3 -5 -1 -14 -8 -20
-12 -10 -13 -8 -9 8 6 23 9 25 17 12z m73 -117 c-3 -3 -12 -4 -19 -1 -8 3 -5
6 6 6 11 1 17 -2 13 -5z m87 -319 c-4 -8 -8 -15 -10 -15 -2 0 -4 7 -4 15 0 8
4 15 10 15 5 0 7 -7 4 -15z m68 -239 c7 4 8 2 4 -5 -9 -13 -26 -5 -25 12 0 9
2 8 6 -1 2 -6 10 -9 15 -6z m2786 -16 c18 -11 30 -25 27 -30 -3 -6 1 -20 9
-32 26 -37 20 -76 -18 -114 -31 -31 -40 -34 -91 -34 -49 0 -60 4 -85 29 -53
53 -52 106 4 165 28 31 40 36 77 36 26 0 57 -8 77 -20z m-2728 -200 c0 -8 -7
-2 -15 14 -19 36 -19 45 0 20 8 -10 14 -26 15 -34z m50 -60 c0 -5 -2 -10 -4
-10 -3 0 -8 5 -11 10 -3 6 -1 10 4 10 6 0 11 -4 11 -10z m47 -7 c-4 -3 0 -15
10 -25 17 -19 8 -24 -16 -9 -13 9 -9 41 5 41 4 0 4 -3 1 -7z m374 -29 c7 -9
33 -26 58 -38 40 -19 68 -50 87 -96 26 -65 79 -163 108 -205 56 -78 172 -190
267 -257 l88 -62 -32 -24 c-81 -60 -92 -62 -294 -62 -104 0 -201 2 -218 4 -16
2 -61 7 -100 10 -296 29 -602 121 -716 217 -65 54 -109 122 -104 161 5 37 26
54 90 69 55 13 128 40 190 69 22 10 112 47 200 81 88 34 201 81 250 105 103
49 108 50 126 28z m5880 -233 c89 -63 223 -131 342 -172 61 -21 120 -39 130
-39 21 0 23 -39 3 -78 -59 -112 -320 -205 -617 -219 l-135 -6 -18 69 c-22 82
-73 220 -94 252 -11 18 -12 25 -2 37 7 8 18 15 24 15 6 1 36 14 66 30 30 16
70 36 88 45 18 9 58 36 88 60 30 25 58 45 63 45 4 0 32 -17 62 -39z m-3780 8
c11 -5 17 -14 14 -20 -4 -5 -2 -9 4 -9 5 0 13 -9 16 -20 16 -49 85 -89 158
-91 37 -2 52 4 86 30 48 38 59 34 93 -33 40 -78 -1 -187 -86 -225 -76 -35
-128 -42 -226 -31 -109 12 -190 41 -231 83 -35 34 -70 108 -71 147 -1 26 25
85 46 105 21 20 66 45 66 38 0 -5 4 -3 8 3 7 10 64 31 90 33 7 1 22 -4 33 -10z
m3266 -165 c21 -6 28 -17 82 -136 54 -119 91 -235 96 -308 2 -25 10 -92 19
-150 25 -172 29 -310 13 -474 -9 -82 -19 -151 -24 -155 -5 -3 -9 -14 -10 -23
-2 -55 -4 -59 -15 -52 -7 5 -9 2 -5 -8 3 -9 0 -21 -6 -28 -9 -10 -9 -11 0 -6
9 5 9 -1 0 -25 -11 -29 -12 -30 -15 -8 -16 133 -53 197 -145 258 -98 64 -131
74 -217 69 -43 -3 -91 -13 -112 -23 -33 -16 -41 -17 -63 -5 -20 11 -37 12 -78
3 -29 -6 -53 -10 -54 -9 -1 0 -3 27 -4 58 l-3 58 49 26 c136 72 266 209 344
361 53 105 63 272 26 428 -23 95 -20 108 23 133 38 22 61 26 99 16z m-3957
-303 c0 -11 2 -25 3 -33 2 -7 2 -10 -1 -5 -2 4 -18 15 -34 23 -24 12 -28 18
-17 25 24 15 49 10 49 -10z m-552 -91 c62 -28 141 -57 175 -65 77 -19 337 -32
337 -18 0 5 11 23 25 39 14 16 25 33 25 37 0 22 20 -9 35 -55 37 -114 141
-292 219 -376 24 -26 45 -52 47 -58 2 -6 29 -32 59 -59 30 -26 87 -79 127
-116 85 -81 159 -132 239 -164 53 -22 59 -27 58 -52 -3 -70 -43 -149 -116
-224 -109 -114 -187 -148 -389 -171 -104 -11 -107 -11 -145 12 -48 29 -168
121 -172 132 -2 4 -10 8 -17 8 -24 0 -119 115 -177 214 -32 53 -58 102 -58
107 0 9 -36 96 -75 184 -23 50 -65 204 -71 261 -7 54 -24 76 -24 30 0 -52 32
-200 64 -299 100 -305 258 -521 450 -618 l78 -39 -48 4 c-27 2 -51 0 -54 -5
-9 -14 -146 -30 -207 -24 -122 12 -253 81 -295 157 -13 24 -30 59 -37 78 -8
19 -20 42 -27 50 -21 25 -90 249 -113 367 -36 184 -49 317 -50 521 -1 155 1
192 12 192 7 0 64 -23 125 -50z m-1213 11 c139 -30 311 -50 494 -57 188 -7
198 -10 241 -85 43 -74 67 -189 39 -189 -17 0 -105 -98 -156 -175 -82 -123
-171 -336 -188 -448 -8 -49 -34 -99 -35 -64 0 9 -4 17 -10 17 -6 0 -10 -34
-10 -81 0 -90 17 -168 33 -147 6 9 7 6 4 -10 -3 -12 3 -57 13 -100 10 -42 16
-79 13 -82 -2 -3 -73 -5 -156 -4 -194 1 -337 26 -447 77 -46 22 -99 57 -85 57
4 0 1 7 -6 16 -10 12 -13 55 -13 163 0 141 9 223 40 379 18 89 73 182 139 231
49 36 59 57 23 45 -69 -21 -119 -68 -181 -171 -116 -190 -160 -353 -169 -620
-1 -33 -6 -53 -13 -53 -7 0 -48 18 -91 41 -144 75 -242 170 -299 292 -29 62
-17 190 29 294 20 45 36 84 36 87 0 4 30 53 67 109 121 183 307 350 498 447
54 27 99 50 100 50 0 0 41 -9 90 -19z m1015 -83 l0 -73 -19 30 c-11 17 -31 43
-45 59 -33 37 -33 44 2 49 65 10 62 13 62 -65z m5306 1 c151 -113 202 -167
262 -284 77 -149 137 -435 92 -435 -6 0 -10 9 -10 20 0 18 -7 20 -70 20 -40 0
-70 -4 -70 -10 0 -5 -15 -10 -32 -10 -25 0 -29 3 -18 10 17 11 10 13 -14 4 -9
-3 -16 -12 -16 -20 0 -10 -15 -14 -60 -14 -33 0 -60 -4 -60 -10 0 -6 27 -10
60 -10 33 0 60 -4 60 -10 0 -5 -18 -10 -40 -10 -22 0 -40 -4 -40 -9 0 -5 -22
-8 -49 -8 -27 1 -44 5 -38 9 9 5 8 11 -2 20 -12 11 -13 10 -6 -2 5 -8 4 -12 0
-7 -5 4 -10 18 -12 30 -12 87 -28 173 -45 237 -26 98 -102 260 -122 260 -13 0
-12 -5 4 -32 52 -89 118 -329 125 -458 2 -30 6 -73 9 -95 6 -42 2 -38 -8 7 -5
21 -10 25 -28 20 -13 -3 -26 -9 -29 -14 -3 -5 -31 -12 -62 -15 -32 -3 -57 -10
-57 -14 0 -12 -61 -11 -79 0 -8 5 -11 16 -8 25 20 50 40 278 40 441 0 154 -14
344 -28 395 -4 13 16 15 143 15 l147 0 61 -46z m-5368 -34 l62 -73 0 -96 c0
-109 -14 -141 -79 -188 -80 -57 -159 -58 -210 -4 l-23 25 38 45 c21 25 39 46
40 46 1 0 0 -10 -3 -22 -4 -22 -4 -22 11 -4 19 24 30 93 24 155 -5 52 -35 117
-69 154 l-20 22 43 6 c113 16 117 14 186 -66z m3887 -110 c143 -49 243 -212
263 -427 14 -149 -22 -298 -103 -432 -80 -131 -150 -174 -308 -188 -88 -7
-107 -5 -195 17 -184 49 -354 115 -466 183 -38 23 -83 46 -100 52 -25 8 -36
21 -54 67 -48 118 -38 252 29 394 l32 67 185 88 c101 49 195 92 207 95 39 11
47 -4 19 -36 -115 -133 -151 -445 -75 -638 16 -41 66 -111 114 -161 66 -68
247 -143 247 -103 0 8 -12 18 -27 22 -14 3 -58 27 -97 53 -39 26 -75 49 -81
51 -5 2 -15 11 -21 19 -10 13 2 20 73 44 125 42 249 104 291 146 74 74 82 194
18 281 -14 18 -34 40 -46 48 -30 21 -232 50 -320 46 -41 -2 -81 1 -89 6 -37
24 56 187 146 258 35 28 102 55 163 67 44 8 144 -1 195 -19z m-970 -335 c-53
-102 -70 -285 -35 -379 11 -30 19 -56 17 -57 -1 -1 -27 4 -57 12 -30 8 -64 14
-76 14 -22 0 -44 19 -48 42 -1 7 -4 18 -7 23 -3 6 -7 42 -8 81 -3 79 17 135
68 192 30 32 151 115 158 108 3 -2 -3 -18 -12 -36z m723 -45 c9 -3 2 -19 -22
-50 -62 -82 -69 -175 -21 -263 l24 -42 -27 -14 c-42 -21 -150 -56 -172 -56
-56 0 -113 322 -75 423 4 9 38 12 143 9 75 -2 143 -5 150 -7z m141 -31 c17
-14 31 -32 31 -40 0 -8 7 -29 16 -45 34 -68 -14 -161 -102 -195 -42 -16 -45
-16 -65 2 -70 63 -69 178 3 258 46 54 72 58 117 20z m756 -134 c4 -6 12 -10
18 -9 7 1 31 1 54 0 41 -1 42 -2 37 -29 -4 -19 1 -34 15 -51 25 -29 29 -26 33
21 1 29 5 35 15 26 7 -5 10 -14 7 -19 -3 -5 3 -6 12 -2 14 5 16 3 11 -11 -5
-13 -3 -17 7 -13 19 7 51 -82 36 -97 -5 -5 -10 -19 -9 -30 1 -18 2 -17 9 4 8
24 8 24 9 3 1 -13 6 -23 11 -23 6 0 10 -29 10 -67 0 -91 -10 -144 -24 -136 -6
3 -8 3 -4 -2 4 -4 3 -17 -3 -29 -10 -20 -10 -20 5 -2 20 25 21 7 1 -21 -9 -12
-15 -26 -14 -30 4 -22 -3 -33 -18 -33 -13 0 -15 -3 -5 -8 9 -6 6 -12 -12 -21
-15 -8 -23 -22 -23 -37 0 -28 -19 -54 -40 -54 -7 0 -16 -7 -20 -15 -5 -14 -8
-14 -30 1 -14 9 -22 11 -19 5 12 -18 -9 -12 -47 13 -19 13 -38 22 -41 18 -3
-3 -6 0 -6 7 0 7 -5 9 -10 6 -6 -3 -15 6 -21 22 -6 15 -19 37 -29 48 -10 11
-20 25 -20 30 -1 6 -7 9 -13 7 -7 -2 -9 0 -5 4 4 4 3 13 -3 21 -7 7 -9 26 -5
43 3 18 1 30 -5 30 -6 0 -7 -4 -4 -10 3 -5 2 -10 -4 -10 -11 0 -37 69 -32 85
2 6 4 19 5 30 1 16 9 21 44 23 29 2 42 8 42 18 0 9 -5 12 -12 8 -19 -12 -88
-22 -88 -13 0 5 5 9 11 9 6 0 9 7 6 15 -4 8 -1 17 5 21 7 5 8 3 3 -5 -5 -10 9
-12 63 -9 l70 3 -13 -32 -14 -33 45 0 c37 0 44 3 44 20 0 11 5 20 11 20 6 0 9
6 6 14 -4 11 1 13 23 10 15 -3 31 0 34 5 4 7 15 7 31 1 20 -8 27 -6 35 10 11
20 7 25 -40 47 -14 6 -19 12 -12 12 14 1 17 41 2 41 -5 0 -10 9 -10 20 0 13
-7 20 -20 20 -13 0 -20 -7 -20 -20 0 -11 -5 -20 -11 -20 -5 0 -8 -4 -4 -9 3
-5 1 -12 -5 -16 -5 -3 -10 1 -10 9 0 9 -5 16 -11 16 -5 0 -7 -4 -4 -10 3 -5 1
-10 -4 -10 -6 0 -11 6 -11 13 0 7 -5 4 -11 -5 -8 -14 -23 -17 -71 -17 -33 1
-63 -3 -67 -7 -9 -13 -31 -16 -31 -4 0 6 8 10 18 11 14 0 14 2 -3 9 -11 5 -15
9 -8 9 7 1 10 8 6 18 -5 13 -2 15 12 10 14 -6 16 -5 7 6 -7 8 -9 16 -7 19 3 3
8 15 10 27 9 48 17 62 31 57 8 -3 12 -2 9 3 -3 5 -1 12 5 16 5 3 11 -2 11 -12
1 -17 2 -17 6 0 3 11 11 16 19 13 9 -3 12 -1 9 4 -3 6 3 10 14 10 11 0 23 -5
26 -10z m1133 -27 c-10 -2 -26 -2 -35 0 -10 3 -2 5 17 5 19 0 27 -2 18 -5z
m-6923 -88 c-10 -72 -12 -76 -17 -42 -4 23 -1 54 9 83 8 25 16 44 18 42 1 -2
-3 -39 -10 -83z m6815 81 c0 -2 -7 -6 -15 -10 -8 -3 -15 -1 -15 4 0 6 7 10 15
10 8 0 15 -2 15 -4z m-1230 -28 c0 -4 8 -5 18 -2 15 5 15 4 2 -8 -8 -7 -16
-24 -18 -38 -1 -14 -5 -32 -9 -40 -3 -8 -7 -22 -7 -30 -1 -8 -7 -14 -14 -12
-8 1 -11 -2 -7 -8 3 -6 11 -8 16 -5 5 4 9 1 9 -4 0 -6 -8 -11 -17 -12 -11 0
-13 -3 -5 -6 15 -6 16 -43 2 -43 -6 0 -10 -6 -9 -12 3 -29 -2 -37 -18 -31 -41
16 -66 54 -44 67 5 4 7 -4 4 -16 -4 -21 -3 -21 7 -5 9 14 7 24 -9 51 -21 33
-28 77 -13 75 18 -3 26 2 14 9 -8 5 -10 19 -6 39 5 25 10 30 27 25 11 -3 18
-1 15 4 -4 5 9 9 28 9 19 0 34 -3 34 -7z m1420 -23 c0 -14 -4 -25 -9 -25 -4 0
-6 11 -3 25 2 14 6 25 8 25 2 0 4 -11 4 -25z m7 -107 c-3 -7 -5 -2 -5 12 0 14
2 19 5 13 2 -7 2 -19 0 -25z m-7 -21 c0 -2 -15 -16 -32 -33 l-33 -29 29 33
c28 30 36 37 36 29z m-3765 -98 c46 -23 68 -40 112 -92 l32 -37 -34 -58 c-19
-31 -35 -62 -35 -68 0 -6 -11 -17 -25 -24 -28 -15 -96 -110 -115 -160 -7 -19
-15 -70 -19 -112 l-6 -77 23 21 22 22 38 -21 c43 -25 56 -47 72 -123 l12 -56
-49 -94 c-48 -93 -50 -95 -84 -94 -70 2 -225 94 -330 196 -86 84 -141 158
-189 257 l-40 81 90 91 c50 50 90 96 91 102 1 7 0 24 -1 38 -1 22 13 37 87 91
191 143 202 149 258 143 28 -4 68 -15 90 -26z m789 -66 c8 -8 11 -9 56 -12 20
-1 22 -3 10 -12 -11 -7 -7 -9 20 -8 64 2 77 0 60 -11 -12 -8 -10 -10 8 -10 13
0 21 4 18 9 -4 5 2 8 11 6 10 -2 21 -4 25 -4 15 -2 39 -35 34 -47 -3 -8 1 -14
10 -14 11 0 14 -6 10 -16 -3 -8 -2 -12 4 -9 6 4 10 -6 11 -22 0 -23 2 -25 8
-9 7 19 8 19 13 -2 4 -13 2 -20 -6 -19 -6 1 -12 -11 -13 -28 -2 -28 -1 -28 5
-5 7 23 8 24 16 5 5 -14 1 -25 -14 -37 -12 -10 -18 -18 -14 -19 5 0 0 -4 -10
-8 -11 -4 -20 -15 -22 -24 -1 -10 2 -15 7 -11 5 3 9 1 9 -5 0 -5 -4 -12 -9
-16 -15 -9 -9 -46 6 -41 7 3 13 -2 13 -10 0 -8 -4 -13 -9 -10 -5 3 -12 -1 -15
-10 -3 -8 -2 -12 4 -9 17 11 11 -10 -9 -32 -11 -12 -17 -23 -14 -27 3 -3 -6
-11 -21 -17 -18 -9 -30 -9 -37 -2 -7 7 -6 12 5 16 9 4 16 2 16 -4 0 -6 5 -7
10 -4 6 4 8 11 4 16 -6 10 -119 3 -137 -8 -4 -3 -15 1 -24 8 -13 11 -17 10
-28 -4 -17 -23 -70 -24 -61 -1 5 13 4 14 -7 6 -8 -7 -16 -10 -18 -7 -3 2 -5
-5 -6 -16 -3 -30 35 -49 95 -46 28 1 52 6 52 10 0 4 10 3 21 -4 15 -8 19 -8
15 0 -4 6 4 15 19 21 20 8 31 6 48 -6 l22 -16 -22 5 c-12 3 -22 2 -21 -2 2
-21 -4 -30 -19 -24 -12 5 -15 2 -10 -10 3 -9 -1 -21 -11 -29 -13 -11 -14 -11
-8 1 6 9 4 12 -5 9 -8 -3 -14 -10 -14 -17 0 -14 -26 -32 -37 -25 -4 3 -5 -2
-2 -10 3 -8 -3 -19 -14 -25 -44 -23 -241 -9 -278 20 -6 5 -14 6 -17 2 -4 -3
-7 -2 -7 3 0 5 -8 10 -17 11 -43 4 -93 33 -94 56 -2 35 -3 41 -17 65 -25 44 0
264 28 247 5 -3 10 -1 10 4 0 6 -6 11 -12 12 -10 0 -10 2 0 6 6 2 12 9 12 14
0 6 -5 7 -10 4 -27 -17 26 108 54 127 16 11 38 10 31 -2 -4 -6 6 -10 21 -10
22 0 25 3 16 12 -15 15 3 39 24 31 7 -3 16 2 20 10 3 9 12 13 21 10 12 -5 12
-7 1 -14 -10 -7 -9 -9 4 -9 24 0 31 17 12 28 -14 8 -12 10 10 14 15 3 45 5 66
4 21 -1 37 1 34 6 -6 10 50 11 60 1z m1229 -150 c-18 -59 -23 -89 -18 -122 21
-141 92 -271 177 -324 l51 -32 -129 -3 c-123 -3 -129 -2 -146 20 -59 74 -104
228 -93 318 12 99 22 126 55 140 16 7 51 28 77 46 27 19 49 34 49 34 1 0 -9
-35 -23 -77z m-2514 34 c8 -10 7 -17 -1 -25 -9 -9 -7 -12 10 -12 12 0 22 -3
22 -6 0 -9 -148 -154 -157 -154 -10 0 -50 -90 -56 -125 -2 -11 -9 -39 -16 -63
-6 -23 -9 -47 -5 -53 7 -11 -47 -5 -104 13 -67 20 -128 94 -100 121 40 38 101
79 121 81 39 4 44 13 39 64 -5 56 0 62 74 86 29 9 74 32 100 51 55 39 57 40
73 22z m1546 -227 c3 -5 1 -10 -4 -10 -6 0 -11 5 -11 10 0 6 2 10 4 10 3 0 8
-4 11 -10z m-225 -124 c0 -3 -4 -8 -10 -11 -5 -3 -10 -1 -10 4 0 6 5 11 10 11
6 0 10 -2 10 -4z"/>
<path d="M4347 3613 c-3 -5 0 -19 8 -29 15 -20 18 -11 6 20 -4 11 -10 15 -14
9z"/>
<path d="M3726 3875 c-4 -10 17 -29 67 -61 40 -26 77 -52 82 -58 10 -11 70
-57 93 -70 7 -4 12 -2 12 7 0 20 -114 133 -169 168 -50 32 -76 36 -85 14z"/>
<path d="M5725 3767 c-42 -45 -60 -56 -105 -67 -30 -7 -71 -21 -91 -31 -108
-54 -205 -215 -216 -360 -5 -69 -4 -79 11 -79 9 0 16 5 16 10 0 13 91 112 97
106 2 -2 -12 -35 -31 -72 -52 -100 -67 -170 -73 -332 -9 -226 23 -336 120
-416 88 -72 189 -86 336 -46 68 19 94 31 128 63 24 22 43 45 43 52 0 7 17 44
38 82 46 88 45 84 46 168 0 82 -17 300 -23 300 -2 0 -4 8 -7 18 -12 49 -30 99
-63 167 -20 44 -85 110 -131 133 l-35 18 45 -7 c65 -9 96 -28 184 -113 79 -76
158 -184 169 -231 3 -14 12 -50 18 -80 17 -78 34 -100 75 -100 22 0 37 6 40
15 4 8 11 15 18 15 13 0 46 50 65 98 8 17 20 32 27 32 17 0 17 0 -5 86 -20 78
-73 183 -129 257 -87 114 -273 241 -373 254 -25 4 -43 12 -46 22 -12 40 -29
64 -55 77 -15 8 -30 14 -35 14 -4 0 -30 -24 -58 -53z m17 -334 c33 -36 44
-103 23 -143 -20 -39 -43 -50 -103 -50 -94 0 -125 56 -84 150 12 29 25 42 42
46 14 3 39 9 55 13 17 5 33 9 36 10 3 1 17 -11 31 -26z m66 -577 c67 -34 119
-96 128 -154 14 -87 -153 -190 -291 -180 -95 8 -219 86 -243 153 -18 50 -21
136 -6 142 8 3 14 11 14 18 0 30 30 23 52 -13 12 -20 26 -39 30 -40 5 -2 6 -7
4 -11 -6 -8 -4 -9 67 -17 68 -9 103 9 144 73 18 29 38 53 44 53 5 0 31 -11 57
-24z"/>
<path d="M4896 2678 c-21 -30 -20 -35 11 -42 41 -11 61 34 24 54 -16 8 -23 6
-35 -12z"/>
<path d="M7011 1524 c0 -11 3 -14 6 -6 3 7 2 16 -1 19 -3 4 -6 -2 -5 -13z"/>
<path d="M6558 1623 c7 -3 16 -2 19 1 4 3 -2 6 -13 5 -11 0 -14 -3 -6 -6z"/>
<path d="M6740 1537 c0 -9 -4 -17 -10 -17 -5 0 -10 -4 -10 -10 0 -5 4 -10 9
-10 12 0 25 39 17 47 -3 4 -6 -1 -6 -10z"/>
<path d="M6397 1489 c7 -7 15 -10 18 -7 3 3 -2 9 -12 12 -14 6 -15 5 -6 -5z"/>
<path d="M6483 1483 c9 -2 23 -2 30 0 6 3 -1 5 -18 5 -16 0 -22 -2 -12 -5z"/>
<path d="M6707 1393 c-4 -3 -7 -11 -7 -17 0 -6 5 -5 12 2 6 6 9 14 7 17 -3 3
-9 2 -12 -2z"/>
<path d="M6680 1171 c0 -5 -17 -12 -37 -16 -21 -4 -41 -11 -44 -17 -4 -7 -13
-7 -25 0 -23 12 -54 -2 -54 -23 0 -10 -12 -15 -37 -16 -21 0 -32 -3 -25 -6 6
-2 12 -13 12 -22 0 -14 6 -17 25 -13 16 3 25 11 25 23 0 10 9 23 20 29 21 11
37 0 70 -48 15 -23 50 -30 50 -11 0 6 6 9 13 6 10 -4 13 2 9 19 -3 19 0 24 17
24 18 0 21 6 21 40 0 33 -3 40 -20 40 -11 0 -20 -4 -20 -9z"/>
<path d="M4728 1263 c6 -2 18 -2 25 0 6 3 1 5 -13 5 -14 0 -19 -2 -12 -5z"/>
<path d="M4680 1230 c0 -5 5 -10 10 -10 6 0 10 5 10 10 0 6 -4 10 -10 10 -5 0
-10 -4 -10 -10z"/>
<path d="M4727 1093 c-2 -5 -3 -15 -2 -23 1 -8 3 -23 3 -32 1 -12 7 -15 18
-11 13 5 13 7 2 14 -8 5 -9 9 -2 9 6 0 17 -7 24 -15 15 -18 44 -21 34 -2 -5 8
-2 8 9 -2 13 -10 17 -10 17 -1 0 9 4 9 17 -1 15 -12 16 -12 8 1 -7 12 -6 13 6
3 8 -6 42 -13 76 -15 52 -2 61 -1 60 13 -1 9 -6 15 -13 12 -7 -2 -15 0 -19 6
-3 6 -15 11 -26 11 -10 0 -19 4 -19 9 0 5 -13 8 -30 6 -17 -2 -36 2 -45 11 -8
8 -20 12 -27 8 -17 -11 -88 -13 -82 -3 3 5 3 9 0 9 -3 0 -7 -3 -9 -7z"/>
<path d="M4865 1090 c-8 -13 5 -13 25 0 13 8 13 10 -2 10 -9 0 -20 -4 -23 -10z"/>
<path d="M4935 994 c9 -9 18 -14 21 -11 9 9 -6 27 -22 27 -13 0 -13 -2 1 -16z"/>
<path d="M4380 785 c0 -8 4 -15 10 -15 5 0 7 7 4 15 -4 8 -8 15 -10 15 -2 0
-4 -7 -4 -15z"/>
<path d="M4545 650 c-3 -5 1 -10 10 -10 9 0 13 5 10 10 -3 6 -8 10 -10 10 -2
0 -7 -4 -10 -10z"/>
<path d="M8523 4132 c-33 -20 -105 -63 -160 -95 -235 -139 -551 -345 -563
-367 -6 -10 -10 -30 -10 -44 0 -54 146 -375 183 -401 12 -8 29 -15 39 -15 34
0 476 193 663 290 210 108 219 117 198 188 -42 140 -189 454 -221 471 -34 18
-64 12 -129 -27z m160 -169 c36 -76 82 -178 101 -226 l34 -89 -246 -122 c-206
-101 -533 -246 -557 -246 -4 0 -31 53 -61 118 -30 64 -61 131 -69 147 -41 85
-44 79 53 143 199 133 649 410 668 411 5 1 40 -61 77 -136z"/>
<path d="M8825 3193 c-270 -33 -713 -95 -743 -104 -17 -6 -36 -18 -41 -28 -12
-21 -26 -388 -17 -424 3 -15 15 -31 25 -37 18 -9 948 -90 1040 -90 28 0 48 7
61 20 19 19 20 33 20 330 0 376 10 350 -137 348 -54 -1 -147 -7 -208 -15z
m283 -327 c-1 -151 -6 -278 -11 -282 -6 -7 -126 1 -777 52 -107 8 -205 17
-217 20 -22 4 -22 6 -17 137 3 72 7 155 10 182 l5 51 227 32 c395 55 584 76
720 80 l64 2 -4 -274z"/>
<path d="M8012 2422 c-10 -10 -25 -43 -34 -73 -10 -29 -35 -114 -57 -188 -46
-150 -48 -170 -23 -200 20 -25 727 -301 770 -301 16 0 36 6 45 13 18 13 140
299 178 415 27 84 19 115 -35 137 -57 24 -766 215 -797 215 -16 0 -37 -8 -47
-18z m363 -132 c351 -96 455 -126 462 -134 3 -3 -2 -27 -12 -53 -34 -93 -147
-358 -155 -367 -6 -6 -154 47 -367 129 -197 75 -359 138 -360 139 -2 2 12 49
31 107 18 57 44 139 56 182 16 54 28 77 39 77 9 0 146 -36 306 -80z"/>
</g>
</svg>
